<mxfile host="65bd71144e">
    <diagram id="DfaT6KrNHAiIDuxXpPhh" name="Page-1">
        <mxGraphModel dx="686" dy="528" grid="1" gridSize="10" guides="1" tooltips="1" connect="1" arrows="1" fold="1" page="0" pageScale="1" pageWidth="850" pageHeight="1100" math="0" shadow="0">
            <root>
                <mxCell id="0"/>
                <mxCell id="1" parent="0"/>
                <mxCell id="3" value="Acciones" style="rounded=0;whiteSpace=wrap;html=1;gradientColor=none;fillColor=#56B0FF;" parent="1" vertex="1">
                    <mxGeometry x="910" y="100" width="120" height="60" as="geometry"/>
                </mxCell>
                <mxCell id="31" style="edgeStyle=none;html=1;entryX=0.5;entryY=1;entryDx=0;entryDy=0;endArrow=none;endFill=0;" parent="1" source="4" target="30" edge="1">
                    <mxGeometry relative="1" as="geometry"/>
                </mxCell>
                <mxCell id="33" style="edgeStyle=none;html=1;entryX=0;entryY=0.5;entryDx=0;entryDy=0;endArrow=none;endFill=0;" parent="1" source="4" target="32" edge="1">
                    <mxGeometry relative="1" as="geometry">
                        <Array as="points">
                            <mxPoint x="760" y="130"/>
                        </Array>
                    </mxGeometry>
                </mxCell>
                <mxCell id="4" value="Recordatorios" style="rounded=0;whiteSpace=wrap;html=1;fillColor=#56B0FF;" parent="1" vertex="1">
                    <mxGeometry x="620" y="100" width="120" height="60" as="geometry"/>
                </mxCell>
                <mxCell id="17" style="edgeStyle=none;html=1;entryX=0;entryY=0.5;entryDx=0;entryDy=0;" parent="1" source="5" target="16" edge="1">
                    <mxGeometry relative="1" as="geometry"/>
                </mxCell>
                <mxCell id="5" value="Medicamento" style="rounded=0;whiteSpace=wrap;html=1;fillColor=#56B0FF;" parent="1" vertex="1">
                    <mxGeometry x="440" y="230" width="120" height="60" as="geometry"/>
                </mxCell>
                <mxCell id="18" style="edgeStyle=none;html=1;entryX=0.5;entryY=1;entryDx=0;entryDy=0;endArrow=none;endFill=0;" parent="1" source="16" target="4" edge="1">
                    <mxGeometry relative="1" as="geometry">
                        <Array as="points">
                            <mxPoint x="680" y="180"/>
                        </Array>
                    </mxGeometry>
                </mxCell>
                <mxCell id="16" value="Contiene" style="rhombus;whiteSpace=wrap;html=1;fillColor=#FFFF66;" parent="1" vertex="1">
                    <mxGeometry x="640" y="220" width="80" height="80" as="geometry"/>
                </mxCell>
                <mxCell id="19" value="&lt;font style=&quot;font-size: 7px;&quot;&gt;ID PK&lt;/font&gt;" style="ellipse;whiteSpace=wrap;html=1;fillColor=#FFCC99;" parent="1" vertex="1">
                    <mxGeometry x="540" y="320" width="30" height="30" as="geometry"/>
                </mxCell>
                <mxCell id="20" value="&lt;font style=&quot;font-size: 7px;&quot;&gt;Hora&lt;/font&gt;" style="ellipse;whiteSpace=wrap;html=1;fillColor=#FFCC99;" parent="1" vertex="1">
                    <mxGeometry x="440" y="310" width="30" height="30" as="geometry"/>
                </mxCell>
                <mxCell id="28" style="edgeStyle=none;html=1;endArrow=none;endFill=0;" parent="1" source="21" target="5" edge="1">
                    <mxGeometry relative="1" as="geometry"/>
                </mxCell>
                <mxCell id="21" value="&lt;font style=&quot;font-size: 7px;&quot;&gt;Gramos&lt;/font&gt;" style="ellipse;whiteSpace=wrap;html=1;fillColor=#FFCC99;" parent="1" vertex="1">
                    <mxGeometry x="485" y="160" width="30" height="30" as="geometry"/>
                </mxCell>
                <mxCell id="29" style="edgeStyle=none;html=1;entryX=0.75;entryY=0;entryDx=0;entryDy=0;endArrow=none;endFill=0;" parent="1" source="22" target="5" edge="1">
                    <mxGeometry relative="1" as="geometry"/>
                </mxCell>
                <mxCell id="22" value="&lt;span style=&quot;font-size: 7px;&quot;&gt;Nombre&lt;/span&gt;" style="ellipse;whiteSpace=wrap;html=1;fillColor=#FFCC99;" parent="1" vertex="1">
                    <mxGeometry x="540" y="180" width="30" height="30" as="geometry"/>
                </mxCell>
                <mxCell id="27" style="edgeStyle=none;html=1;endArrow=none;endFill=0;" parent="1" source="23" target="5" edge="1">
                    <mxGeometry relative="1" as="geometry"/>
                </mxCell>
                <mxCell id="23" value="&lt;font style=&quot;font-size: 7px;&quot;&gt;Dias&lt;/font&gt;" style="ellipse;whiteSpace=wrap;html=1;fillColor=#FFCC99;" parent="1" vertex="1">
                    <mxGeometry x="435" y="190" width="30" height="30" as="geometry"/>
                </mxCell>
                <mxCell id="25" style="edgeStyle=none;html=1;entryX=0.712;entryY=1.038;entryDx=0;entryDy=0;entryPerimeter=0;endArrow=none;endFill=0;" parent="1" source="19" target="5" edge="1">
                    <mxGeometry relative="1" as="geometry">
                        <Array as="points">
                            <mxPoint x="530" y="300"/>
                        </Array>
                    </mxGeometry>
                </mxCell>
                <mxCell id="26" style="edgeStyle=none;html=1;entryX=0.408;entryY=0.99;entryDx=0;entryDy=0;entryPerimeter=0;endArrow=none;endFill=0;" parent="1" source="20" target="5" edge="1">
                    <mxGeometry relative="1" as="geometry"/>
                </mxCell>
                <mxCell id="30" value="&lt;font style=&quot;font-size: 7px;&quot;&gt;intervalo de horas&lt;/font&gt;" style="ellipse;whiteSpace=wrap;html=1;fillColor=#FFCC99;" parent="1" vertex="1">
                    <mxGeometry x="665" y="40" width="45" height="35" as="geometry"/>
                </mxCell>
                <mxCell id="34" style="edgeStyle=none;html=1;entryX=0;entryY=0.5;entryDx=0;entryDy=0;endArrow=none;endFill=0;" parent="1" source="32" target="3" edge="1">
                    <mxGeometry relative="1" as="geometry"/>
                </mxCell>
                <mxCell id="32" value="Contiene" style="rhombus;whiteSpace=wrap;html=1;fillColor=#FFFF66;" parent="1" vertex="1">
                    <mxGeometry x="790" y="90" width="80" height="80" as="geometry"/>
                </mxCell>
                <mxCell id="37" value="1:n" style="text;html=1;align=center;verticalAlign=middle;resizable=0;points=[];autosize=1;strokeColor=none;fillColor=none;" parent="1" vertex="1">
                    <mxGeometry x="660" y="300" width="40" height="30" as="geometry"/>
                </mxCell>
                <mxCell id="38" value="1:n" style="text;html=1;align=center;verticalAlign=middle;resizable=0;points=[];autosize=1;strokeColor=none;fillColor=none;" parent="1" vertex="1">
                    <mxGeometry x="810" y="180" width="40" height="30" as="geometry"/>
                </mxCell>
                <mxCell id="39" style="edgeStyle=none;html=1;entryX=0.5;entryY=1;entryDx=0;entryDy=0;endArrow=none;endFill=0;exitX=0.5;exitY=0;exitDx=0;exitDy=0;" parent="1" source="3" target="40" edge="1">
                    <mxGeometry relative="1" as="geometry">
                        <mxPoint x="970" y="90" as="sourcePoint"/>
                    </mxGeometry>
                </mxCell>
                <mxCell id="40" value="&lt;font style=&quot;font-size: 8px;&quot;&gt;Estado&lt;/font&gt;" style="ellipse;whiteSpace=wrap;html=1;fillColor=#FFCC99;" parent="1" vertex="1">
                    <mxGeometry x="955" y="30" width="45" height="35" as="geometry"/>
                </mxCell>
            </root>
        </mxGraphModel>
    </diagram>
</mxfile>